<svg xmlns="http://www.w3.org/2000/svg" width="571" height="1043"><defs><style>@import url('https://fonts.googleapis.com/css2?family=Roboto+Mono&amp;display=swap')</style><style>text,text&gt;tspan{font-family:'Roboto Mono';font-size:16px} rect{stroke:black} line,path{fill:none;stroke:black}</style><marker id="arrowMarker" orient="auto" refX="4" refY="3" markerHeight="6" markerWidth="3"><path style="fill:black;stroke:black" d="M 0 0 L 3 3 L 0 6 Z"></path></marker><marker id="inheritMarker" orient="auto" refX="10" refY="4.5" markerHeight="9" markerWidth="9"><path style="fill:white;stroke:black" d="M 0 0 L 9 4.5 L 0 9 Z"></path></marker><marker id="aggregationMarker" orient="auto" refX="13" refY="4.5" markerHeight="9" markerWidth="12"><path style="fill:white;stroke:black" d="M 0 4.5 L 6 0 L 12 4.5 L 6 9 Z"></path></marker><marker id="compositionMarker" orient="auto" refX="13" refY="4.5" markerHeight="9" markerWidth="12"><path style="fill:black;stroke:black" d="M 0 4.5 L 6 0 L 12 4.5 L 6 9 Z"></path></marker></defs><g transform="translate(3,19)"><rect height="166" width="167" style="fill:white"></rect><rect height="19" width="167.5" style="fill:white"></rect><text x="64.75" y="16">User</text><text><tspan x="1.5" y="35" style="text-decoration:underline">id_user</tspan><tspan x="1.5" y="51">email</tspan><tspan x="1.5" y="67">password</tspan><tspan x="1.5" y="83">first_name</tspan><tspan x="1.5" y="99">last_name</tspan><tspan x="1.5" y="115">roles</tspan><tspan x="1.5" y="131">is_active</tspan><tspan x="1.5" y="147">terms_accepted_at</tspan><tspan x="1.5" y="163">avatar_url</tspan></text></g><g transform="translate(230,3)"><rect height="198" width="158" style="fill:white"></rect><rect height="19" width="158" style="fill:white"></rect><text x="60" y="16">Defi</text><text><tspan x="1.5" y="35" style="text-decoration:underline">id_defi</tspan><tspan x="1.5" y="51">title</tspan><tspan x="1.5" y="67">description</tspan><tspan x="1.5" y="83">date_defi</tspan><tspan x="1.5" y="99">type_defi</tspan><tspan x="1.5" y="115">region</tspan><tspan x="1.5" y="131">country</tspan><tspan x="1.5" y="147">distance</tspan><tspan x="1.5" y="163">min_participants</tspan><tspan x="1.5" y="179">max_participants</tspan><tspan x="1.5" y="195">image_url</tspan></text></g><g transform="translate(7,261)"><rect height="54" width="158" style="fill:white"></rect><rect height="19" width="158" style="fill:white"></rect><text x="26.75" y="16">Inscription</text><text><tspan x="1.5" y="35" style="text-decoration:underline">id_inscription</tspan><tspan x="1.5" y="51">date_inscription</tspan></text></g><g transform="translate(7,375)"><rect height="70" width="158" style="fill:white"></rect><rect height="19" width="158" style="fill:white"></rect><text x="26.75" y="16">Commentaire</text><text><tspan x="1.5" y="35" style="text-decoration:underline">id_commentaire</tspan><tspan x="1.5" y="51">contenu</tspan><tspan x="1.5" y="67">date_commentaire</tspan></text></g><g transform="translate(263,383)"><rect height="54" width="91" style="fill:white"></rect><rect height="19" width="91.5" style="fill:white"></rect><text x="26.75" y="16">Like</text><text><tspan x="1.5" y="35" style="text-decoration:underline">id_like</tspan><tspan x="1.5" y="51">date_like</tspan></text></g><g transform="translate(3,505)"><rect height="86" width="167" style="fill:white"></rect><rect height="19" width="167.5" style="fill:white"></rect><text x="26.75" y="16">Notification</text><text><tspan x="1.5" y="35" style="text-decoration:underline">id_notification</tspan><tspan x="1.5" y="51">message</tspan><tspan x="1.5" y="67">date_notification</tspan><tspan x="1.5" y="83">lu</tspan></text></g><g transform="translate(55,651)"><rect height="38" width="63.5" rx="20" ry="20" style="fill:white"></rect><line x1="0" x2="63.5" y1="19" y2="19"></line><text x="8" y="17">CREER</text><text></text></g><g transform="translate(282,651)"><rect height="38" width="54" rx="20" ry="20" style="fill:white"></rect><line x1="0" x2="54" y1="19" y2="19"></line><text x="8" y="17">FAIT</text><text></text></g><g transform="translate(448,651)"><rect height="38" width="63.5" rx="20" ry="20" style="fill:white"></rect><line x1="0" x2="63.5" y1="19" y2="19"></line><text x="8" y="17">CIBLE</text><text></text></g><g transform="translate(55,749)"><rect height="38" width="63.5" rx="20" ry="20" style="fill:white"></rect><line x1="0" x2="63.5" y1="19" y2="19"></line><text x="8" y="17">ECRIT</text><text></text></g><g transform="translate(277,749)"><rect height="38" width="63.5" rx="20" ry="20" style="fill:white"></rect><line x1="0" x2="63.5" y1="19" y2="19"></line><text x="8" y="17">PORTE</text><text></text></g><g transform="translate(59,847)"><rect height="38" width="54" rx="20" ry="20" style="fill:white"></rect><line x1="0" x2="54" y1="19" y2="19"></line><text x="8" y="17">AIME</text><text></text></g><g transform="translate(272,847)"><rect height="38" width="73" rx="20" ry="20" style="fill:white"></rect><line x1="0" x2="73" y1="19" y2="19"></line><text x="8" y="17">A_LIKE</text><text></text></g><g transform="translate(45,945)"><rect height="38" width="82.5" rx="20" ry="20" style="fill:white"></rect><line x1="0" x2="82.5" y1="19" y2="19"></line><text x="8" y="17">NOTIFIE</text><text></text></g><g><line x1="86" x2="86" y1="651" y2="185"></line><text x="89" y="201">1,1</text></g><g><line x1="93" x2="270" y1="651" y2="201"></line><text x="237" y="217">0,N</text></g><g><line x1="302" x2="119" y1="651" y2="185"></line><text x="122" y="201">1,1</text></g><g><line x1="298" x2="102" y1="651" y2="315"></line><text x="105" y="331">0,N</text></g><g><line x1="473" x2="339" y1="651" y2="201"></line><text x="342" y="217">1,1</text></g><g><line x1="459" x2="114" y1="651" y2="315"></line><text x="117" y="331">0,N</text></g><g><line x1="86" x2="86" y1="749" y2="185"></line><text x="89" y="201">1,1</text></g><g><line x1="86" x2="86" y1="749" y2="445"></line><text x="89" y="461">0,N</text></g><g><line x1="308" x2="308" y1="749" y2="201"></line><text x="311" y="217">1,1</text></g><g><line x1="296" x2="108" y1="749" y2="445"></line><text x="111" y="461">0,N</text></g><g><line x1="86" x2="86" y1="847" y2="185"></line><text x="89" y="201">1,1</text></g><g><line x1="95" x2="295" y1="847" y2="437"></line><text x="262" y="453">0,N</text></g><g><line x1="308" x2="308" y1="847" y2="201"></line><text x="311" y="217">1,1</text></g><g><line x1="308" x2="308" y1="847" y2="437"></line><text x="311" y="453">0,N</text></g><g><line x1="86" x2="86" y1="945" y2="185"></line><text x="89" y="201">1,1</text></g><g><line x1="86" x2="86" y1="945" y2="591"></line><text x="89" y="607">0,N</text></g></svg>