<svg xmlns="http://www.w3.org/2000/svg" width="448" height="699"><defs><style>@import url('https://fonts.googleapis.com/css2?family=Roboto+Mono&amp;display=swap')</style><style>text,text&gt;tspan{font-family:'Roboto Mono';font-size:16px} rect{stroke:black} line,path{fill:none;stroke:black}</style><marker id="arrowMarker" orient="auto" refX="4" refY="3" markerHeight="6" markerWidth="3"><path style="fill:black;stroke:black" d="M 0 0 L 3 3 L 0 6 Z"></path></marker><marker id="inheritMarker" orient="auto" refX="10" refY="4.5" markerHeight="9" markerWidth="9"><path style="fill:white;stroke:black" d="M 0 0 L 9 4.5 L 0 9 Z"></path></marker><marker id="aggregationMarker" orient="auto" refX="13" refY="4.5" markerHeight="9" markerWidth="12"><path style="fill:white;stroke:black" d="M 0 4.5 L 6 0 L 12 4.5 L 6 9 Z"></path></marker><marker id="compositionMarker" orient="auto" refX="13" refY="4.5" markerHeight="9" markerWidth="12"><path style="fill:black;stroke:black" d="M 0 4.5 L 6 0 L 12 4.5 L 6 9 Z"></path></marker></defs><g transform="translate(3,3)"><rect height="246" width="167" style="fill:white"></rect><rect height="19" width="167.5" style="fill:white"></rect><text x="64.75" y="16">User</text><text><tspan x="1.5" y="35" style="text-decoration:underline">id_user</tspan><tspan x="1.5" y="51">email</tspan><tspan x="1.5" y="67">password</tspan><tspan x="1.5" y="83">first_name</tspan><tspan x="1.5" y="99">last_name</tspan><tspan x="1.5" y="115">roles</tspan><tspan x="1.5" y="131">is_active</tspan><tspan x="1.5" y="147">terms_accepted_at</tspan><tspan x="1.5" y="163">avatar_url</tspan><tspan x="1.5" y="179">id_notification</tspan><tspan x="1.5" y="195">id_like</tspan><tspan x="1.5" y="211">id_commentaire</tspan><tspan x="1.5" y="227">id_inscription</tspan><tspan x="1.5" y="243">id_defi</tspan></text></g><g transform="translate(230,3)"><rect height="246" width="158" style="fill:white"></rect><rect height="19" width="158" style="fill:white"></rect><text x="60" y="16">Defi</text><text><tspan x="1.5" y="35" style="text-decoration:underline">id_defi</tspan><tspan x="1.5" y="51">title</tspan><tspan x="1.5" y="67">description</tspan><tspan x="1.5" y="83">date_defi</tspan><tspan x="1.5" y="99">type_defi</tspan><tspan x="1.5" y="115">region</tspan><tspan x="1.5" y="131">country</tspan><tspan x="1.5" y="147">distance</tspan><tspan x="1.5" y="163">min_participants</tspan><tspan x="1.5" y="179">max_participants</tspan><tspan x="1.5" y="195">image_url</tspan><tspan x="1.5" y="211">id_like</tspan><tspan x="1.5" y="227">id_commentaire</tspan><tspan x="1.5" y="243">id_inscription</tspan></text></g><g transform="translate(7,309)"><rect height="54" width="158" style="fill:white"></rect><rect height="19" width="158" style="fill:white"></rect><text x="26.75" y="16">Inscription</text><text><tspan x="1.5" y="35" style="text-decoration:underline">id_inscription</tspan><tspan x="1.5" y="51">date_inscription</tspan></text></g><g transform="translate(7,423)"><rect height="70" width="158" style="fill:white"></rect><rect height="19" width="158" style="fill:white"></rect><text x="26.75" y="16">Commentaire</text><text><tspan x="1.5" y="35" style="text-decoration:underline">id_commentaire</tspan><tspan x="1.5" y="51">contenu</tspan><tspan x="1.5" y="67">date_commentaire</tspan></text></g><g transform="translate(263,431)"><rect height="54" width="91" style="fill:white"></rect><rect height="19" width="91.5" style="fill:white"></rect><text x="26.75" y="16">Like</text><text><tspan x="1.5" y="35" style="text-decoration:underline">id_like</tspan><tspan x="1.5" y="51">date_like</tspan></text></g><g transform="translate(3,553)"><rect height="86" width="167" style="fill:white"></rect><rect height="19" width="167.5" style="fill:white"></rect><text x="26.75" y="16">Notification</text><text><tspan x="1.5" y="35" style="text-decoration:underline">id_notification</tspan><tspan x="1.5" y="51">message</tspan><tspan x="1.5" y="67">date_notification</tspan><tspan x="1.5" y="83">lu</tspan></text></g><g><path d="M 170 179 L 176 179 L 176 585 L 170 585" marker-end="url(#arrowMarker)"></path></g><g><path d="M 170 195 L 176 195 L 257 463 L 263 463" marker-end="url(#arrowMarker)"></path></g><g><path d="M 170 211 L 176 211 L 176 455 L 165 455" marker-end="url(#arrowMarker)"></path></g><g><path d="M 170 227 L 176 227 L 176 341 L 165 341" marker-end="url(#arrowMarker)"></path></g><g><path d="M 170 243 L 176 243 L 224 35 L 230 35" marker-end="url(#arrowMarker)"></path></g><g><path d="M 388 211 L 394 211 L 394 463 L 354 463" marker-end="url(#arrowMarker)"></path></g><g><path d="M 230 227 L 224 227 L 171 455 L 165 455" marker-end="url(#arrowMarker)"></path></g><g><path d="M 230 243 L 224 243 L 171 341 L 165 341" marker-end="url(#arrowMarker)"></path></g></svg>